<?xml version="1.0" encoding="UTF-8" standalone="no"?>
<!-- Created with Inkscape (http://www.inkscape.org/) -->

<svg
   xmlns:dc="http://purl.org/dc/elements/1.1/"
   xmlns:cc="http://creativecommons.org/ns#"
   xmlns:rdf="http://www.w3.org/1999/02/22-rdf-syntax-ns#"
   xmlns:svg="http://www.w3.org/2000/svg"
   xmlns="http://www.w3.org/2000/svg"
   xmlns:xlink="http://www.w3.org/1999/xlink"
   xmlns:sodipodi="http://sodipodi.sourceforge.net/DTD/sodipodi-0.dtd"
   xmlns:inkscape="http://www.inkscape.org/namespaces/inkscape"
   width="744.09448819"
   height="1052.3622047"
   id="svg2"
   version="1.1"
   inkscape:version="0.48.2 r9819"
   sodipodi:docname="pfadismn.svg"
   enable-background="new">
  <defs
     id="defs4">
    <marker
       inkscape:stockid="Arrow1Lstart"
       orient="auto"
       refY="0.0"
       refX="0.0"
       id="Arrow1Lstart"
       style="overflow:visible">
      <path
         id="path3976"
         d="M 0.0,0.0 L 5.0,-5.0 L -12.5,0.0 L 5.0,5.0 L 0.0,0.0 z "
         style="fill-rule:evenodd;stroke:#000000;stroke-width:1.0pt;marker-start:none"
         transform="scale(0.8) translate(12.5,0)" />
    </marker>
    <linearGradient
       id="linearGradient3897">
      <stop
         style="stop-color:#ffffff;stop-opacity:0.5258621;"
         offset="0"
         id="stop3899" />
      <stop
         style="stop-color:#ffffff;stop-opacity:0;"
         offset="1"
         id="stop3901" />
    </linearGradient>
    <linearGradient
       id="linearGradient3847">
      <stop
         style="stop-color:#000000;stop-opacity:1;"
         offset="0"
         id="stop3849" />
      <stop
         style="stop-color:#5a5a5a;stop-opacity:1;"
         offset="1"
         id="stop3851" />
    </linearGradient>
    <linearGradient
       id="linearGradient3827">
      <stop
         style="stop-color:#ff0000;stop-opacity:1;"
         offset="0"
         id="stop3829" />
      <stop
         style="stop-color:#ff8282;stop-opacity:1;"
         offset="1"
         id="stop3831" />
    </linearGradient>
    <linearGradient
       id="linearGradient3815">
      <stop
         style="stop-color:#000000;stop-opacity:1;"
         offset="0"
         id="stop3817" />
      <stop
         style="stop-color:#5a5a5a;stop-opacity:1;"
         offset="1"
         id="stop3819" />
    </linearGradient>
    <linearGradient
       inkscape:collect="always"
       xlink:href="#linearGradient3815"
       id="linearGradient3821"
       x1="391.87949"
       y1="735.48352"
       x2="391.87949"
       y2="86.909317"
       gradientUnits="userSpaceOnUse" />
    <linearGradient
       inkscape:collect="always"
       xlink:href="#linearGradient3827"
       id="linearGradient3833"
       x1="418.18094"
       y1="672.8429"
       x2="418.18094"
       y2="226.86644"
       gradientUnits="userSpaceOnUse" />
    <linearGradient
       inkscape:collect="always"
       xlink:href="#linearGradient3847"
       id="linearGradient3856"
       gradientUnits="userSpaceOnUse"
       x1="451.28528"
       y1="474.79932"
       x2="451.28528"
       y2="145.65105" />
    <linearGradient
       inkscape:collect="always"
       xlink:href="#linearGradient3827"
       id="linearGradient3869"
       x1="274.63101"
       y1="496.34903"
       x2="274.63101"
       y2="-136.30946"
       gradientUnits="userSpaceOnUse" />
    <linearGradient
       inkscape:collect="always"
       xlink:href="#linearGradient3847"
       id="linearGradient3888"
       x1="373.23581"
       y1="694.22577"
       x2="375.06097"
       y2="664.94"
       gradientUnits="userSpaceOnUse" />
    <linearGradient
       inkscape:collect="always"
       xlink:href="#linearGradient3897"
       id="linearGradient3903"
       x1="171.56146"
       y1="333.40115"
       x2="207.44188"
       y2="373.01154"
       gradientUnits="userSpaceOnUse" />
    <linearGradient
       inkscape:collect="always"
       xlink:href="#linearGradient3897-8"
       id="linearGradient3903-6"
       x1="171.56146"
       y1="333.40115"
       x2="207.44188"
       y2="373.01154"
       gradientUnits="userSpaceOnUse" />
    <linearGradient
       id="linearGradient3897-8">
      <stop
         style="stop-color:#ffffff;stop-opacity:0.5258621;"
         offset="0"
         id="stop3899-6" />
      <stop
         style="stop-color:#ffffff;stop-opacity:0;"
         offset="1"
         id="stop3901-3" />
    </linearGradient>
    <linearGradient
       y2="373.01154"
       x2="207.44188"
       y1="333.40115"
       x1="171.56146"
       gradientUnits="userSpaceOnUse"
       id="linearGradient3954"
       xlink:href="#linearGradient3897-8"
       inkscape:collect="always" />
    <filter
       inkscape:collect="always"
       id="filter4833">
      <feGaussianBlur
         inkscape:collect="always"
         stdDeviation="9.3274228"
         id="feGaussianBlur4835" />
    </filter>
    <filter
       inkscape:collect="always"
       id="filter4837">
      <feGaussianBlur
         inkscape:collect="always"
         stdDeviation="5.7905365"
         id="feGaussianBlur4839" />
    </filter>
    <filter
       inkscape:collect="always"
       id="filter4948"
       x="-0.066544983"
       width="1.13309"
       y="-0.28644352"
       height="1.572887">
      <feGaussianBlur
         inkscape:collect="always"
         stdDeviation="4.9104901"
         id="feGaussianBlur4950" />
    </filter>
  </defs>
  <sodipodi:namedview
     id="base"
     pagecolor="#ffffff"
     bordercolor="#666666"
     borderopacity="1.0"
     inkscape:pageopacity="0.0"
     inkscape:pageshadow="2"
     inkscape:zoom="0.7"
     inkscape:cx="307.6282"
     inkscape:cy="607.64454"
     inkscape:document-units="px"
     inkscape:current-layer="layer5"
     showgrid="false"
     inkscape:window-width="637"
     inkscape:window-height="880"
     inkscape:window-x="923"
     inkscape:window-y="18"
     inkscape:window-maximized="0" />
  <metadata
     id="metadata7">
    <rdf:RDF>
      <cc:Work
         rdf:about="">
        <dc:format>image/svg+xml</dc:format>
        <dc:type
           rdf:resource="http://purl.org/dc/dcmitype/StillImage" />
        <dc:title />
      </cc:Work>
    </rdf:RDF>
  </metadata>
  <g
     inkscape:groupmode="layer"
     id="layer9"
     inkscape:label="Shadow"
     style="display:none">
    <path
       style="font-size:medium;font-style:normal;font-variant:normal;font-weight:normal;font-stretch:normal;text-indent:0;text-align:start;text-decoration:none;line-height:normal;letter-spacing:normal;word-spacing:normal;text-transform:none;direction:ltr;block-progression:tb;writing-mode:lr-tb;text-anchor:start;baseline-shift:baseline;color:#000000;fill:#ff0000;fill-opacity:1;fill-rule:nonzero;stroke:#000000;stroke-width:8.89999962;stroke-miterlimit:4;stroke-opacity:1;stroke-dasharray:none;marker:none;visibility:visible;display:inline;overflow:visible;filter:url(#filter4833);enable-background:accumulate;font-family:Sans;-inkscape-font-specification:Sans"
       d="m 395.68622,145.51415 c -37.67728,57.46529 -66.71747,124.83747 -85.65625,187.90625 -18.53032,64.11502 -26.85888,128.39866 -11.09375,173.75 -37.28201,-20.84798 -66.84946,-28.9133 -90.21875,-27.8125 -25.97388,1.22349 -44.09069,14.03059 -55.15625,31.125 -11.06108,17.08748 -15.50988,38.22949 -16.03125,57.375 -0.52115,19.13767 2.60266,36.10651 8.65625,46.1875 19.16934,31.92254 11.50034,69.6824 -9.28125,81.71875 -0.0399,0.0231 -0.085,0.0396 -0.125,0.0625 l -0.40625,0.21875 -4.9375,2.625 0.84375,0.96875 -0.125,0.0937 0.5625,0.40625 2.375,2.75 0.40625,0.46875 c 2.25753,2.60504 5.74392,3.16533 8.53125,2.8125 2.74516,-0.34749 5.37801,-1.35965 8.1875,-2.75 5.62923,-2.78577 11.97623,-7.23912 18.46875,-12.46875 12.98223,-10.457 26.23085,-23.75475 32.5625,-33.375 12.72531,-19.33471 26.91495,-31.32285 40.5625,-37.15625 13.65054,-5.83468 26.68278,-5.64927 38.09375,-0.5 22.49392,10.15052 39.33422,40.92097 35.09375,88.28125 -21.18817,16.47303 -29.96207,33.64184 -32.9375,46.9375 -3.05994,13.67332 -0.0761,23.54855 -0.0625,23.59375 l 0,0.0312 0.1875,0.59375 1.65625,5.53125 4.90625,-3 0.5625,-0.34375 0.0312,-0.0312 0.0312,-0.0312 c 0,0 4.2915,-2.69999 10.40625,-5.46875 l 0.0312,-0.0312 c 6.1105,-2.76344 13.99304,-5.43001 20.25,-5.53125 8.10486,-0.13114 14.23693,-3.8963 18.625,-8.375 -0.31954,7.68235 0.063,18.0644 3.78125,37.0625 3.72667,19.04086 13.94709,36.80427 22.96875,50.0625 4.5151,6.63539 8.77201,12.13964 11.75,16 3.84524,4.65867 5.25831,7.75653 8.59375,11.125 4.64593,-4.81199 6.9297,-6.8168 9.4687,-9.34375 3.65981,-3.69085 8.84462,-8.94521 14.28125,-15.34375 10.86535,-12.78777 23.02269,-30.1053 26.8125,-49.46875 4.28109,-21.87361 5.36768,-32.37885 5.78125,-40.625 0.71826,0.88294 1.22384,1.74935 2.03125,2.625 5.33314,5.78392 12.7547,11.19163 22.15625,11.34375 12.08177,0.19549 23.997,11.59882 24.1875,11.78125 0.002,0.001 0.0625,0.0625 0.0625,0.0625 l 0.46875,0.5 4.90625,5.1875 2.5,-6.6875 0.28125,-0.75 c 0,0 5.31107,-13.85683 2.15625,-30.6875 -3.05091,-16.27636 -14.73312,-35.29256 -44.34375,-46.6875 -6.84306,-48.1429 9.22598,-77.85078 31.625,-87.1875 22.82171,-9.51292 54.36589,0.89918 79.8125,39.5625 6.47058,9.83134 20.36081,22.5553 34,32.5 6.81996,4.97261 13.50809,9.15514 19.37497,11.71875 2.9257,1.27842 5.6496,2.21234 8.4063,2.46875 2.7557,0.25633 6.0881,-0.32511 8.3437,-2.8125 0.031,-0.0336 0.064,-0.0594 0.094,-0.0937 l 0.031,-0.0312 0.2813,-0.3125 2.875,-3.09375 0.2187,-0.15625 -0.031,-0.0312 0.7188,-0.78125 -4.7813,-2.8125 -0.5312,-0.3125 -0.031,-0.0312 c -20.87436,-11.96192 -28.613,-49.7652 -9.4063,-81.75 6.0702,-10.10861 9.0195,-27.0058 8.2188,-45.875 -0.8009,-18.87346 -5.6272,-39.56583 -17.06252,-56 -11.44129,-16.44279 -29.93536,-28.29983 -56.03125,-28.34375 -23.91718,-0.0403 -54.11466,9.57632 -92.1875,32.78125 9.81247,-45.67574 3.66914,-111.33253 -9.875,-177.5 C 449.8033,280.3587 432.76604,197.24118 395.68622,145.51415 z m 0.75,17 c 4.70252,10.16211 9.43437,21.2698 14.125,33.4375 -50.29494,105.85067 -57.98737,219.93637 -46.21875,319.21875 11.70514,98.74682 42.52387,182.67894 70.46875,230.15625 l -0.0312,0.46875 0,0.0312 0,0.0312 c -0.65311,14.75407 0.78549,18.81003 -6.1875,54.4375 -3.22172,16.46086 -14.31907,32.77134 -24.65625,44.9375 -5.16673,6.08089 -10.09231,11.12406 -13.71875,14.78125 -0.59799,0.60306 -0.91597,0.94116 -1.4375,1.46875 -0.5906,-0.77921 -1.0098,-1.38424 -1.75,-2.34375 -2.97891,-3.86154 -7.05234,-9.14743 -11.375,-15.5 -8.64864,-12.71005 -18.18413,-29.59271 -21.46875,-46.375 -6.91033,-35.30733 -1.94613,-37.88935 -2.625,-53.40625 l 0,-0.0312 -0.0625,-1.78125 -0.5625,-16.4375 -7.78125,14.46875 -0.875,1.625 0,0.0312 c -1.98443,3.69441 -4.22884,8.5124 -7.46875,12.3125 -3.24247,3.8031 -6.95631,6.43498 -12.90625,6.53125 -8.74012,0.14142 -17.47418,3.3523 -24.21875,6.40625 -2.07831,0.94106 -3.53908,1.72248 -5.09375,2.53125 -0.13949,-3.02591 0.0102,-7.09743 1.15625,-12.21875 2.56389,-11.45674 9.96921,-26.92618 30.84375,-42.59375 l 0.1875,-0.125 1.65625,-1.09375 0.28125,-1.96875 0.0312,-0.21875 0,-0.0937 0.0312,-0.0937 c 5.18547,-51.23757 -12.85226,-87.61562 -40.78125,-100.21875 -13.94874,-6.29445 -30.15548,-6.34721 -46,0.40625 l -0.0625,0.0312 c -15.85974,6.77896 -31.41881,20.22486 -44.96875,40.8125 -5.05639,7.68263 -18.17211,21.18899 -30.46875,31.09375 -2.14129,1.72477 -4.19896,3.17849 -6.25,4.65625 12.58769,-20.62859 12.61513,-51.96576 -3.5625,-78.90625 -4.11824,-6.85806 -7.7652,-23.07234 -7.28125,-40.84375 0.48405,-17.77524 4.82427,-37.3339 14.5,-52.28125 9.67894,-14.95231 24.27299,-25.53973 47.3125,-26.625 23.02949,-1.0848 54.80442,7.81911 97.1875,33.625 l 0.0312,0.0312 1.46875,0.90625 13.1875,8.25 -6.84375,-14 -0.78125,-1.59375 -0.0312,-0.0312 0,-0.0312 c -20.82635,-40.76734 -14.04196,-110.40949 6.12505,-180.1875 18.9664,-65.62388 49.30961,-131.06126 76.875,-173.6875 z m 18.96875,46.75 c 14.3941,39.5135 27.88648,86.06252 37.46875,132.875 14.6242,71.44394 19.98002,142.59381 7.09375,184.65625 l -0.40625,1.3125 -3.625,11.71875 10.28125,-6.6875 1.15625,-0.75 0.0312,0 c 42.17251,-27.459 74.05021,-37.69529 97.25,-37.65625 23.20531,0.039 37.9718,9.8165 47.90625,24.09375 l 0.0625,0.125 c 9.87507,14.25749 14.51077,33.26829 15.24997,50.6875 0.7392,17.41939 -2.6934,33.42504 -6.78122,40.28125 -0.01,0.0163 -0.0215,0.0463 -0.0312,0.0625 l -0.125,0.1875 -0.0312,0.0312 0,0.0312 c -16.67867,27.99298 -15.91461,60.68115 -1.78125,81.15625 -2.94737,-1.81121 -6.11408,-3.9492 -9.3125,-6.28125 -12.90099,-9.40645 -26.65084,-22.47479 -31.5625,-29.9375 -27.10257,-41.17937 -63.72626,-54.99644 -91.90625,-43.25 -28.17909,11.74607 -45.63961,47.95455 -37.34375,100.46875 l 0.0312,0.0937 0,0.0937 0.0625,0.3125 0.53125,2.53125 2.4375,0.8125 0.21875,0.0625 c 0.0235,0.008 0.0391,0.023 0.0625,0.0312 29.32418,10.31694 38.17341,26.49371 40.78125,40.40625 1.37397,7.33002 0.82233,13.66546 0.0312,18.21875 -5.40929,-4.09436 -13.94022,-9.1386 -24.6875,-9.3125 -5.6098,-0.0908 -10.70192,-3.52349 -15.03125,-8.21875 -3.52937,-3.82768 -6.11817,-8.01506 -8,-11.34375 l 0.90625,-0.5625 -2.25,-3.78125 c -27.13182,-45.50711 -58.2847,-129.41366 -69.93745,-227.7185 -11.26779,-95.05724 -4.26615,-203.58992 41.25,-304.75 z"
       id="path3056-0"
       inkscape:connector-curvature="0"
       sodipodi:nodetypes="cccsssscccccccccsssssscsccccccccccscsscccsscssccccccscssssscccccccccccsssscccccsccccssscssscccccccssscscccccccsccsscssssccccccccsccsccccccsccsccccccsssccccccccscsscccsc" />
    <path
       id="path3836-1"
       style="fill:none;stroke:#000000;stroke-width:10;stroke-linecap:butt;stroke-linejoin:miter;stroke-miterlimit:4;stroke-opacity:1;stroke-dasharray:none;display:inline;filter:url(#filter4837)"
       d="m 410.59005,202.9774 c -27.62355,70.54805 -51.85264,146.75354 -45.71429,273.57142 m 38.05087,-270.07925 c -33.33504,-9.37394 -80.98114,-25.28525 -100.00511,0 -28.35165,37.6829 -6.99667,66.14705 6.06092,95.96448 10.00324,22.84271 25.69667,43.24677 27.27412,69.70053 -61.52384,-12.50177 -131.28348,-71.18572 -168.1904,-33.84012 -36.90692,37.34561 -5.17637,75.19387 -5.05077,84.34774 0.12561,9.15388 -17.15049,33.09326 -4.82335,57.59103 12.32713,24.49777 46.9717,47.61548 80.58479,23.22118 33.08964,-24.0144 100.87409,-48.69035 131.31984,-23.23351 47.85865,-27.1781 72.99518,-11.94157 101.52033,-3.03046 46.74614,27.26083 60.52335,29.24458 102.02541,28.28427 41.50206,-0.96031 26.6848,-85.26337 16.66751,-87.88327 35.49577,-84.18836 -34.84952,-111.88193 -73.74113,-83.84266 -35.99548,25.95128 -81.55091,44.27661 -77.27668,34.34519 -11.07321,-5.76868 38.02319,-77.79513 39.90103,-129.29951 1.06249,-29.14147 -21.46516,-45.39595 -46.97209,-45.45687 -18.93012,-0.0452 -12.23566,8.48252 -29.29442,13.13198 z"
       inkscape:connector-curvature="0" />
    <path
       style="font-size:medium;font-style:normal;font-variant:normal;font-weight:normal;font-stretch:normal;text-indent:0;text-align:start;text-decoration:none;line-height:normal;letter-spacing:normal;word-spacing:normal;text-transform:none;direction:ltr;block-progression:tb;writing-mode:lr-tb;text-anchor:start;baseline-shift:baseline;color:#000000;fill:#000000;fill-opacity:1;stroke:#000000;stroke-width:0;stroke-miterlimit:4;stroke-opacity:1;stroke-dasharray:none;marker:none;visibility:visible;display:inline;overflow:visible;filter:url(#filter4948);enable-background:accumulate;font-family:Sans;-inkscape-font-specification:Sans"
       d="m 329.76656,666.99407 c -4.03515,-0.0374 -7.7095,0.021 -11.03125,0.21875 -6.6435,0.39541 -11.96952,1.22798 -16.34375,3.5625 -4.37423,2.33452 -7.45937,6.9866 -7.71875,12.03125 l 0,0.0625 c -0.14599,3.25175 1.32857,6.36662 3.40625,8.5 2.09121,2.14726 4.70794,3.6069 7.65625,4.84375 5.89662,2.4737 13.39249,4.01407 21.75,5.15625 16.71503,2.28436 36.80572,2.8418 51.21875,3.5 14.15882,0.64659 35.92494,3.10104 54.53125,3.25 9.30316,0.0745 17.80408,-0.39156 24.65625,-2.1875 3.42608,-0.89797 6.49301,-2.10327 9.0625,-4.15625 2.56949,-2.05298 4.5463,-5.26952 4.78125,-8.8125 0.41287,-6.22604 -3.71947,-11.61546 -9.15625,-14.5 -5.43678,-2.88454 -12.39898,-4.46235 -20.875,-5.625 -16.95204,-2.32529 -39.88962,-2.71086 -65.34375,-3.875 -19.10435,-0.87373 -34.48831,-1.85667 -46.59375,-1.96875 z m -0.15625,10 c 11.59719,0.12364 27.08185,1.09067 46.28125,1.96875 25.61753,1.17161 48.56181,1.6036 64.4375,3.78125 7.93785,1.08883 14.09196,2.72117 17.5625,4.5625 3.47054,1.84133 4.02504,2.73736 3.875,5 -0.0465,0.70136 -0.11568,0.92472 -1.03125,1.65625 -0.91557,0.73153 -2.77904,1.6321 -5.375,2.3125 -5.19192,1.36079 -13.1421,1.91492 -22.03125,1.84375 -17.7783,-0.14233 -39.36662,-2.57318 -54.1875,-3.25 -14.56666,-0.66521 -34.4555,-1.23915 -50.3125,-3.40625 -7.9285,-1.08355 -14.85189,-2.6368 -19.21875,-4.46875 -2.18343,-0.91597 -3.67393,-1.90598 -4.34375,-2.59375 -0.66982,-0.68777 -0.61179,-0.74283 -0.59375,-1.09375 0.11343,-2.20618 0.38652,-2.62415 2.4375,-3.71875 2.05098,-1.0946 6.22574,-2.04956 12.21875,-2.40625 2.99651,-0.17835 6.41552,-0.22871 10.28125,-0.1875 z"
       id="path3872-8"
       inkscape:connector-curvature="0" />
  </g>
  <g
     style="display:none"
     inkscape:label="LilieFillMono"
     id="g3033"
     inkscape:groupmode="layer">
    <path
       inkscape:connector-curvature="0"
       id="path3035"
       d="m 394.76366,160.56524 c -9.60845,8.26412 -13.9056,21.4071 -20.625,31.96428 -34.338,65.03767 -60.72212,134.97333 -72.47233,207.74326 -4.93583,40.52144 -7.78557,84.30254 11.66876,121.63174 -33.33608,-19.50554 -69.95961,-40.16974 -110,-36.875 -24.55059,1.86209 -44.36103,21.05366 -51.95913,43.69247 -8.38566,21.36539 -7.7571,45.62355 -3.97837,67.82539 3.40266,14.10204 13.8504,25.51744 14.6875,40.44643 2.72865,15.10148 1.23154,30.4717 -4.59822,44.59821 0.21156,7.12359 8.22502,3.20197 10.625,-0.3125 17.4107,-13.33398 29.8071,-31.99223 43.97322,-48.34821 17.53378,-20.07622 47.51996,-32.19413 72.99107,-20.66964 26.52691,12.32185 36.81251,43.42518 38.57143,70.40178 0.17262,8.74219 1.6682,18.61999 -0.60458,26.59259 -16.45712,14.60113 -34.77007,33.21438 -33.05614,57.02348 3.74876,6.40767 11.35322,-1.03961 16.65179,-1.65178 11.18195,-3.40039 25.76365,-2.43122 32.14285,-14.375 3.54978,-5.1963 6.27969,-10.79295 9.41965,-16.16072 -1.58517,31.44753 -1.32606,64.80086 14.8749,92.86432 7.12704,12.26745 14.63601,25.11294 24.63403,34.94818 12.13785,-7.44918 20.68267,-20.05167 28.82515,-31.70218 15.7,-22.03665 18.43849,-49.97387 20.05877,-76.1996 0.81452,-19.31916 -13.52812,-34.68602 -19.59821,-52.1875 -48.32083,-112.5868 -64.9645,-239.04006 -48.16964,-360.58036 7.10275,-50.11821 22.94364,-98.33962 42.72321,-144.73214 2.06972,-8.60822 -5.38438,-16.47051 -7.58928,-24.50893 -2.57349,-3.56987 -3.14446,-12.4005 -9.19643,-11.42857 z"
       style="fill:#000000;fill-opacity:1;fill-rule:nonzero;stroke:#ff0000;stroke-width:0;stroke-miterlimit:4;stroke-opacity:1;stroke-dasharray:none;display:inline" />
    <path
       inkscape:connector-curvature="0"
       id="path3037"
       d="m 413.60294,206.32417 c -10.34038,15.5995 -14.49292,34.78644 -21.07143,52.27678 -28.61175,87.80571 -31.0964,182.66954 -18.69787,273.72053 10.71947,72.65364 31.87106,144.21104 67.04848,208.88194 5.65716,11.99093 14.66583,25.37817 29.4554,25.65889 7.89262,0.31711 14.40948,5.3881 21.83685,6.91721 7.09744,-2.44011 3.36665,-12.15388 3.34822,-17.76785 -2.72246,-21.12299 -20.81116,-36.01573 -39.55358,-43.08036 -8.58576,-2.71944 -4.37307,-13.3248 -5.68606,-19.9999 -1.66026,-26.10196 3.36652,-55.54993 24.70392,-72.8126 22.15734,-18.14422 55.56589,-11.10767 75.35714,6.74107 18.70476,15.17171 29.49409,38.2415 49.49202,52.20716 5.51524,3.17764 10.31723,11.44625 17.04427,10.44438 5.19836,-4.99753 -2.48723,-12.57693 -3.18807,-18.63368 -7.3723,-23.56235 2.16021,-47.60482 12.05277,-68.79716 7.31339,-23.81053 5.07579,-50.58941 -4.3742,-73.56891 -8.44206,-21.55245 -29.0556,-38.31505 -52.76786,-38.30358 -39.60567,-0.9679 -75.45525,20.99008 -107.8125,40.3125 12.5934,-42.14507 8.7463,-86.79228 4.50893,-130 -8.45068,-65.4688 -24.91707,-130.01806 -47.05357,-192.27678 -1.19644,-1.86283 -2.50256,-2.31564 -4.64286,-1.91964 z"
       style="fill:#ffffff;fill-opacity:1;fill-rule:nonzero;stroke:none;display:inline" />
  </g>
  <g
     style="display:none"
     inkscape:label="LilieMono"
     id="g3813"
     inkscape:groupmode="layer">
    <path
       sodipodi:nodetypes="cccsssscccccccccsssssscsccccccccccscsscccsscssccccccscssssscccccccccccsssscccccsccccssscssscccccccssscscccccccsccsscssssccccccccsccsccccccsccsccccccsssccccccccscsscccsc"
       inkscape:connector-curvature="0"
       id="path3815"
       d="m 395.25,143.5 c -37.67728,57.46529 -66.71747,124.83747 -85.65625,187.90625 -18.53032,64.11502 -26.85888,128.39866 -11.09375,173.75 -37.28201,-20.84798 -66.84946,-28.9133 -90.21875,-27.8125 -25.97388,1.22349 -44.09069,14.03059 -55.15625,31.125 -11.06108,17.08748 -15.50988,38.22949 -16.03125,57.375 -0.52115,19.13767 2.60266,36.10651 8.65625,46.1875 19.16934,31.92254 11.50034,69.6824 -9.28125,81.71875 -0.0399,0.0231 -0.085,0.0396 -0.125,0.0625 l -0.40625,0.21875 -4.9375,2.625 0.84375,0.96875 -0.125,0.0937 0.5625,0.40625 2.375,2.75 0.40625,0.46875 c 2.25753,2.60504 5.74392,3.16533 8.53125,2.8125 2.74516,-0.34749 5.37801,-1.35965 8.1875,-2.75 5.62923,-2.78577 11.97623,-7.23912 18.46875,-12.46875 12.98223,-10.457 26.23085,-23.75475 32.5625,-33.375 12.72531,-19.33471 26.91495,-31.32285 40.5625,-37.15625 13.65054,-5.83468 26.68278,-5.64927 38.09375,-0.5 22.49392,10.15052 39.33422,40.92097 35.09375,88.28125 -21.18817,16.47303 -29.96207,33.64184 -32.9375,46.9375 -3.05994,13.67332 -0.0761,23.54855 -0.0625,23.59375 l 0,0.0312 0.1875,0.59375 1.65625,5.53125 4.90625,-3 0.5625,-0.34375 0.0312,-0.0312 0.0312,-0.0312 c 0,0 4.2915,-2.69999 10.40625,-5.46875 l 0.0312,-0.0312 c 6.1105,-2.76344 13.99304,-5.43001 20.25,-5.53125 8.10486,-0.13114 14.23693,-3.8963 18.625,-8.375 -0.31954,7.68235 0.063,18.0644 3.78125,37.0625 3.72667,19.04086 13.94709,36.80427 22.96875,50.0625 4.5151,6.63539 8.77201,12.13964 11.75,16 3.84524,4.65867 5.25831,7.75653 8.59375,11.125 4.64593,-4.81199 6.9297,-6.8168 9.4687,-9.34375 3.65981,-3.69085 8.84462,-8.94521 14.28125,-15.34375 10.86535,-12.78777 23.02269,-30.1053 26.8125,-49.46875 4.28109,-21.87361 5.36768,-32.37885 5.78125,-40.625 0.71826,0.88294 1.22384,1.74935 2.03125,2.625 5.33314,5.78392 12.7547,11.19163 22.15625,11.34375 12.08177,0.19549 23.997,11.59882 24.1875,11.78125 0.002,10e-4 0.0625,0.0625 0.0625,0.0625 l 0.46875,0.5 4.90625,5.1875 2.5,-6.6875 0.28125,-0.75 c 0,0 5.31107,-13.85683 2.15625,-30.6875 -3.05091,-16.27636 -14.73312,-35.29256 -44.34375,-46.6875 -6.84306,-48.1429 9.22598,-77.85078 31.625,-87.1875 22.82171,-9.51292 54.36589,0.89918 79.8125,39.5625 6.47058,9.83134 20.36081,22.5553 34,32.5 6.81996,4.97261 13.50809,9.15514 19.375,11.71875 2.9257,1.27842 5.64959,2.21234 8.40625,2.46875 2.75576,0.25633 6.08816,-0.32511 8.34375,-2.8125 0.0305,-0.0336 0.0636,-0.0594 0.0937,-0.0937 l 0.0312,-0.0312 0.28125,-0.3125 2.875,-3.09375 0.21875,-0.15625 -0.0312,-0.0312 0.71875,-0.78125 -4.78125,-2.8125 -0.53125,-0.3125 -0.0312,-0.0312 c -20.87434,-11.96192 -28.61298,-49.7652 -9.40625,-81.75 6.07018,-10.10861 9.01949,-27.0058 8.21875,-45.875 -0.80092,-18.87346 -5.62721,-39.56583 -17.0625,-56 -11.44129,-16.44279 -29.93536,-28.29983 -56.03125,-28.34375 -23.91718,-0.0403 -54.11466,9.57632 -92.1875,32.78125 9.81247,-45.67574 3.66914,-111.33253 -9.875,-177.5 C 449.36708,278.34455 432.32982,195.22703 395.25,143.5 z m 0.75,17 c 4.70252,10.16211 9.43437,21.2698 14.125,33.4375 -50.29494,105.85067 -57.98737,219.93637 -46.21875,319.21875 11.70514,98.74682 42.52387,182.67894 70.46875,230.15625 l -0.0312,0.46875 0,0.0312 0,0.0312 c -0.65311,14.75407 0.78549,18.81003 -6.1875,54.4375 -3.22172,16.46086 -14.31907,32.77134 -24.65625,44.9375 -5.16673,6.08089 -10.09231,11.12406 -13.71875,14.78125 -0.59799,0.60306 -0.91597,0.94116 -1.4375,1.46875 -0.5906,-0.77921 -1.0098,-1.38424 -1.75,-2.34375 -2.97891,-3.86154 -7.05234,-9.14743 -11.375,-15.5 -8.64864,-12.71005 -18.18413,-29.59271 -21.46875,-46.375 -6.91033,-35.30733 -1.94613,-37.88935 -2.625,-53.40625 l 0,-0.0312 -0.0625,-1.78125 -0.5625,-16.4375 -7.78125,14.46875 -0.875,1.625 0,0.0312 c -1.98443,3.69441 -4.22884,8.5124 -7.46875,12.3125 -3.24247,3.8031 -6.95631,6.43498 -12.90625,6.53125 -8.74012,0.14142 -17.47418,3.3523 -24.21875,6.40625 -2.07831,0.94106 -3.53908,1.72248 -5.09375,2.53125 -0.13949,-3.02591 0.0102,-7.09743 1.15625,-12.21875 2.56389,-11.45674 9.96921,-26.92618 30.84375,-42.59375 l 0.1875,-0.125 1.65625,-1.09375 0.28125,-1.96875 0.0312,-0.21875 0,-0.0937 0.0312,-0.0937 c 5.18547,-51.23757 -12.85226,-87.61562 -40.78125,-100.21875 -13.94874,-6.29445 -30.15548,-6.34721 -46,0.40625 l -0.0625,0.0312 c -15.85974,6.77896 -31.41881,20.22486 -44.96875,40.8125 -5.05639,7.68263 -18.17211,21.18899 -30.46875,31.09375 -2.14129,1.72477 -4.19896,3.17849 -6.25,4.65625 12.58769,-20.62859 12.61513,-51.96576 -3.5625,-78.90625 -4.11824,-6.85806 -7.7652,-23.07234 -7.28125,-40.84375 0.48405,-17.77524 4.82427,-37.3339 14.5,-52.28125 9.67894,-14.95231 24.27299,-25.53973 47.3125,-26.625 23.02949,-1.0848 54.80442,7.81911 97.1875,33.625 l 0.0312,0.0312 1.46875,0.90625 13.1875,8.25 -6.84375,-14 -0.78125,-1.59375 -0.0312,-0.0312 0,-0.0312 C 292.1736,473.60766 298.95799,403.96551 319.125,334.1875 338.0914,268.56362 368.43461,203.12624 396,160.5 z m 18.96875,46.75 c 14.3941,39.5135 27.88648,86.06252 37.46875,132.875 14.6242,71.44394 19.98002,142.59381 7.09375,184.65625 l -0.40625,1.3125 -3.625,11.71875 10.28125,-6.6875 1.15625,-0.75 0.0312,0 c 42.17251,-27.459 74.05021,-37.69529 97.25,-37.65625 23.20531,0.039 37.9718,9.8165 47.90625,24.09375 l 0.0625,0.125 c 9.87503,14.25749 14.51079,33.26829 15.25,50.6875 0.73922,17.41939 -2.69341,33.42504 -6.78125,40.28125 -0.01,0.0163 -0.0215,0.0463 -0.0312,0.0625 l -0.125,0.1875 -0.0312,0.0312 0,0.0312 c -16.67867,27.99298 -15.91461,60.68115 -1.78125,81.15625 -2.94737,-1.81121 -6.11408,-3.9492 -9.3125,-6.28125 -12.90099,-9.40645 -26.65084,-22.47479 -31.5625,-29.9375 -27.10257,-41.17937 -63.72626,-54.99644 -91.90625,-43.25 -28.17909,11.74607 -45.63961,47.95455 -37.34375,100.46875 l 0.0312,0.0937 0,0.0937 0.0625,0.3125 0.53125,2.53125 2.4375,0.8125 0.21875,0.0625 c 0.0235,0.008 0.0391,0.023 0.0625,0.0312 29.32418,10.31694 38.17341,26.49371 40.78125,40.40625 1.37397,7.33002 0.82233,13.66546 0.0312,18.21875 -5.40929,-4.09436 -13.94022,-9.1386 -24.6875,-9.3125 -5.6098,-0.0908 -10.70192,-3.52349 -15.03125,-8.21875 -3.52937,-3.82768 -6.11817,-8.01506 -8,-11.34375 l 0.90625,-0.5625 -2.25,-3.78125 C 416.52438,694.21139 385.3715,610.30484 373.71875,512 c -11.26779,-95.05724 -4.26615,-203.58992 41.25,-304.75 z"
       style="font-size:medium;font-style:normal;font-variant:normal;font-weight:normal;font-stretch:normal;text-indent:0;text-align:start;text-decoration:none;line-height:normal;letter-spacing:normal;word-spacing:normal;text-transform:none;direction:ltr;block-progression:tb;writing-mode:lr-tb;text-anchor:start;baseline-shift:baseline;color:#000000;fill:#000000;fill-opacity:1;fill-rule:nonzero;stroke:none;stroke-width:8.89999962;marker:none;visibility:visible;display:inline;overflow:visible;enable-background:accumulate;font-family:Sans;-inkscape-font-specification:Sans" />
  </g>
  <g
     style="display:none"
     inkscape:label="KleeblattMono"
     id="g3038"
     inkscape:groupmode="layer">
    <path
       inkscape:connector-curvature="0"
       d="M 410.71429,202.36218 C 383.09074,272.91023 358.86165,349.11573 365,475.93361 m 38.05087,-270.07926 c -33.33504,-9.37394 -80.98114,-25.28525 -100.00511,0 -28.35165,37.6829 -6.99667,66.14705 6.06092,95.96449 10.00324,22.84271 25.69667,43.24677 27.27412,69.70053 -61.52384,-12.50177 -131.28348,-71.18572 -168.1904,-33.84012 -36.90692,37.34561 -5.17637,75.19387 -5.05077,84.34774 0.12561,9.15388 -17.15049,33.09326 -4.82335,57.59103 12.32713,24.49777 46.9717,47.61548 80.58479,23.22118 33.08964,-24.0144 100.87409,-48.69035 131.31984,-23.23351 47.85865,-27.1781 72.99518,-11.94157 101.52033,-3.03046 46.74614,27.26083 60.52335,29.24458 102.02541,28.28427 41.50206,-0.96031 26.6848,-85.26337 16.66751,-87.88327 35.49577,-84.18836 -34.84952,-111.88193 -73.74113,-83.84266 -35.99548,25.95128 -81.55091,44.27661 -77.27668,34.34519 -11.07321,-5.76868 38.02319,-77.79513 39.90103,-129.29952 1.06249,-29.14147 -21.46516,-45.39595 -46.97209,-45.45687 -18.93012,-0.0452 -12.23566,8.48252 -29.29442,13.13198 z"
       style="fill:none;stroke:#000000;stroke-width:10;stroke-linecap:butt;stroke-linejoin:miter;stroke-miterlimit:4;stroke-opacity:1;stroke-dasharray:none"
       id="path3040" />
    <path
       style="fill:#000000;fill-opacity:1;fill-rule:nonzero;stroke:#000000;stroke-width:0;stroke-miterlimit:4;stroke-opacity:1;stroke-dasharray:none"
       d="m 428.78507,195.44182 c -16.1482,0.34473 -19.7947,19.34352 -24.85889,31.16555 -22.9563,61.82484 -36.65909,127.1868 -36.46836,193.25372 -0.0529,18.35261 -1.4201,36.98648 -0.45144,55.16111 5.14912,5.00409 12.24913,-3.6898 18.29655,-5.07146 30.62808,-13.52748 66.34514,-6.05478 94.94152,9.38576 23.10822,11.86713 47.45743,24.79937 74.43339,22.8178 12.36451,-0.86117 29.31184,3.23714 36.83044,-9.79284 11.65849,-20.10816 8.11249,-45.46593 1.69643,-66.65179 -0.70187,-4.67005 -7.35331,-6.98653 -3.79634,-11.8933 8.02178,-22.43727 14.34414,-50.62841 -2.00723,-71.00848 -15.44144,-20.80384 -47.33636,-22.92936 -67.88576,-8.34269 -22.73842,13.61937 -45.05892,29.0692 -70.86424,36.24447 -3.95468,0.34627 -13.127,3.37863 -12.23214,-3.75 -0.69208,-15.76697 9.48419,-29.44514 14.33035,-43.97321 12.03849,-30.71012 29.24465,-62.44798 24.73215,-96.51786 -3.36226,-21.28405 -26.74279,-32.76817 -46.69643,-31.02678 z"
       id="path3816"
       inkscape:connector-curvature="0" />
    <path
       style="fill:#ffffff;fill-opacity:1;fill-rule:nonzero;stroke:none"
       d="m 333.24935,194.72753 c -16.31568,-0.46322 -30.41428,10.90255 -36.20535,25.66964 -10.24872,19.12351 -4.1934,41.2481 4.54721,59.56711 12.10579,29.75628 31.27399,57.24583 36.74743,89.22754 2.72971,6.37338 -2.14379,4.76434 -6.29591,3.40068 -43.47083,-10.39694 -81.85745,-36.93919 -126.29338,-44.29354 -17.35056,-3.27492 -34.11749,6.29626 -43.57142,20.44643 -12.65078,16.35923 -10.38601,39.85514 -2.44084,57.78227 3.91537,8.42914 7.15228,18.05228 2.45938,26.9021 -6.92603,17.95578 -8.91936,40.65584 5.42788,55.67277 13.45397,16.84931 37.96523,28.17577 58.66072,17.67857 18.41929,-8.8379 34.6195,-21.5784 54.15178,-28.08036 24.11546,-9.98031 51.36226,-14.32207 76.91965,-9.50892 7.04008,-3.9767 3.36605,-14.46305 4.72575,-21.11556 0.35423,-61.33182 5.33048,-123.1944 24.04926,-181.75273 5.2096,-18.81666 13.14723,-37.04612 18.25114,-55.69837 -4.37467,-6.26313 -15.20514,-5.29366 -22.33422,-8.31981 -15.99838,-3.87749 -32.1785,-8.0891 -48.79908,-7.57782 z"
       id="path3822"
       inkscape:connector-curvature="0" />
  </g>
  <g
     inkscape:groupmode="layer"
     id="layer4"
     inkscape:label="LilieFill"
     style="display:inline">
    <path
       style="fill:url(#linearGradient3821);fill-opacity:1;fill-rule:nonzero;stroke:#ff0000;stroke-width:0;stroke-miterlimit:4;stroke-opacity:1;stroke-dasharray:none;display:inline"
       d="m 394.76366,160.56524 c -9.60845,8.26412 -13.9056,21.4071 -20.625,31.96428 -34.338,65.03767 -60.72212,134.97333 -72.47233,207.74326 -4.93583,40.52144 -7.78557,84.30254 11.66876,121.63174 -33.33608,-19.50554 -69.95961,-40.16974 -110,-36.875 -24.55059,1.86209 -44.36103,21.05366 -51.95913,43.69247 -8.38566,21.36539 -7.7571,45.62355 -3.97837,67.82539 3.40266,14.10204 13.8504,25.51744 14.6875,40.44643 2.72865,15.10148 1.23154,30.4717 -4.59822,44.59821 0.21156,7.12359 8.22502,3.20197 10.625,-0.3125 17.4107,-13.33398 29.8071,-31.99223 43.97322,-48.34821 17.53378,-20.07622 47.51996,-32.19413 72.99107,-20.66964 26.52691,12.32185 36.81251,43.42518 38.57143,70.40178 0.17262,8.74219 1.6682,18.61999 -0.60458,26.59259 -16.45712,14.60113 -34.77007,33.21438 -33.05614,57.02348 3.74876,6.40767 11.35322,-1.03961 16.65179,-1.65178 11.18195,-3.40039 25.76365,-2.43122 32.14285,-14.375 3.54978,-5.1963 6.27969,-10.79295 9.41965,-16.16072 -1.58517,31.44753 -1.32606,64.80086 14.8749,92.86432 7.12704,12.26745 14.63601,25.11294 24.63403,34.94818 12.13785,-7.44918 20.68267,-20.05167 28.82515,-31.70218 15.7,-22.03665 18.43849,-49.97387 20.05877,-76.1996 0.81452,-19.31916 -13.52812,-34.68602 -19.59821,-52.1875 -48.32083,-112.5868 -64.9645,-239.04006 -48.16964,-360.58036 7.10275,-50.11821 22.94364,-98.33962 42.72321,-144.73214 2.06972,-8.60822 -5.38438,-16.47051 -7.58928,-24.50893 -2.57349,-3.56987 -3.14446,-12.4005 -9.19643,-11.42857 z"
       id="path3045"
       inkscape:connector-curvature="0" />
    <path
       style="fill:url(#linearGradient3833);fill-opacity:1;fill-rule:nonzero;stroke:#ff0000;stroke-width:0;stroke-miterlimit:4;stroke-opacity:1;stroke-dasharray:none;display:inline"
       d="m 413.60294,206.32417 c -10.34038,15.5995 -14.49292,34.78644 -21.07143,52.27678 -28.61175,87.80571 -31.0964,182.66954 -18.69787,273.72053 10.71947,72.65364 31.87106,144.21104 67.04848,208.88194 5.65716,11.99093 14.66583,25.37817 29.4554,25.65889 7.89262,0.31711 14.40948,5.3881 21.83685,6.91721 7.09744,-2.44011 3.36665,-12.15388 3.34822,-17.76785 -2.72246,-21.12299 -20.81116,-36.01573 -39.55358,-43.08036 -8.58576,-2.71944 -4.37307,-13.3248 -5.68606,-19.9999 -1.66026,-26.10196 3.36652,-55.54993 24.70392,-72.8126 22.15734,-18.14422 55.56589,-11.10767 75.35714,6.74107 18.70476,15.17171 29.49409,38.2415 49.49202,52.20716 5.51524,3.17764 10.31723,11.44625 17.04427,10.44438 5.19836,-4.99753 -2.48723,-12.57693 -3.18807,-18.63368 -7.3723,-23.56235 2.16021,-47.60482 12.05277,-68.79716 7.31339,-23.81053 5.07579,-50.58941 -4.3742,-73.56891 -8.44206,-21.55245 -29.0556,-38.31505 -52.76786,-38.30358 -39.60567,-0.9679 -75.45525,20.99008 -107.8125,40.3125 12.5934,-42.14507 8.7463,-86.79228 4.50893,-130 -8.45068,-65.4688 -24.91707,-130.01806 -47.05357,-192.27678 -1.19644,-1.86283 -2.50256,-2.31564 -4.64286,-1.91964 z"
       id="path3825"
       inkscape:connector-curvature="0" />
  </g>
  <g
     inkscape:groupmode="layer"
     id="layer2"
     inkscape:label="Lilie"
     style="display:inline">
    <path
       style="font-size:medium;font-style:normal;font-variant:normal;font-weight:normal;font-stretch:normal;text-indent:0;text-align:start;text-decoration:none;line-height:normal;letter-spacing:normal;word-spacing:normal;text-transform:none;direction:ltr;block-progression:tb;writing-mode:lr-tb;text-anchor:start;baseline-shift:baseline;color:#000000;fill:#ff0000;fill-opacity:1;fill-rule:nonzero;stroke:none;stroke-width:8.89999962;marker:none;visibility:visible;display:inline;overflow:visible;enable-background:accumulate;font-family:Sans;-inkscape-font-specification:Sans"
       d="m 395.25,143.5 c -37.67728,57.46529 -66.71747,124.83747 -85.65625,187.90625 -18.53032,64.11502 -26.85888,128.39866 -11.09375,173.75 -37.28201,-20.84798 -66.84946,-28.9133 -90.21875,-27.8125 -25.97388,1.22349 -44.09069,14.03059 -55.15625,31.125 -11.06108,17.08748 -15.50988,38.22949 -16.03125,57.375 -0.52115,19.13767 2.60266,36.10651 8.65625,46.1875 19.16934,31.92254 11.50034,69.6824 -9.28125,81.71875 -0.0399,0.0231 -0.085,0.0396 -0.125,0.0625 l -0.40625,0.21875 -4.9375,2.625 0.84375,0.96875 -0.125,0.0937 0.5625,0.40625 2.375,2.75 0.40625,0.46875 c 2.25753,2.60504 5.74392,3.16533 8.53125,2.8125 2.74516,-0.34749 5.37801,-1.35965 8.1875,-2.75 5.62923,-2.78577 11.97623,-7.23912 18.46875,-12.46875 12.98223,-10.457 26.23085,-23.75475 32.5625,-33.375 12.72531,-19.33471 26.91495,-31.32285 40.5625,-37.15625 13.65054,-5.83468 26.68278,-5.64927 38.09375,-0.5 22.49392,10.15052 39.33422,40.92097 35.09375,88.28125 -21.18817,16.47303 -29.96207,33.64184 -32.9375,46.9375 -3.05994,13.67332 -0.0761,23.54855 -0.0625,23.59375 l 0,0.0312 0.1875,0.59375 1.65625,5.53125 4.90625,-3 0.5625,-0.34375 0.0312,-0.0312 0.0312,-0.0312 c 0,0 4.2915,-2.69999 10.40625,-5.46875 l 0.0312,-0.0312 c 6.1105,-2.76344 13.99304,-5.43001 20.25,-5.53125 8.10486,-0.13114 14.23693,-3.8963 18.625,-8.375 -0.31954,7.68235 0.063,18.0644 3.78125,37.0625 3.72667,19.04086 13.94709,36.80427 22.96875,50.0625 4.5151,6.63539 8.77201,12.13964 11.75,16 3.84524,4.65867 5.25831,7.75653 8.59375,11.125 4.64593,-4.81199 6.9297,-6.8168 9.4687,-9.34375 3.65981,-3.69085 8.84462,-8.94521 14.28125,-15.34375 10.86535,-12.78777 23.02269,-30.1053 26.8125,-49.46875 4.28109,-21.87361 5.36768,-32.37885 5.78125,-40.625 0.71826,0.88294 1.22384,1.74935 2.03125,2.625 5.33314,5.78392 12.7547,11.19163 22.15625,11.34375 12.08177,0.19549 23.997,11.59882 24.1875,11.78125 0.002,10e-4 0.0625,0.0625 0.0625,0.0625 l 0.46875,0.5 4.90625,5.1875 2.5,-6.6875 0.28125,-0.75 c 0,0 5.31107,-13.85683 2.15625,-30.6875 -3.05091,-16.27636 -14.73312,-35.29256 -44.34375,-46.6875 -6.84306,-48.1429 9.22598,-77.85078 31.625,-87.1875 22.82171,-9.51292 54.36589,0.89918 79.8125,39.5625 6.47058,9.83134 20.36081,22.5553 34,32.5 6.81996,4.97261 13.50809,9.15514 19.375,11.71875 2.9257,1.27842 5.64959,2.21234 8.40625,2.46875 2.75576,0.25633 6.08816,-0.32511 8.34375,-2.8125 0.0305,-0.0336 0.0636,-0.0594 0.0937,-0.0937 l 0.0312,-0.0312 0.28125,-0.3125 2.875,-3.09375 0.21875,-0.15625 -0.0312,-0.0312 0.71875,-0.78125 -4.78125,-2.8125 -0.53125,-0.3125 -0.0312,-0.0312 c -20.87434,-11.96192 -28.61298,-49.7652 -9.40625,-81.75 6.07018,-10.10861 9.01949,-27.0058 8.21875,-45.875 -0.80092,-18.87346 -5.62721,-39.56583 -17.0625,-56 -11.44129,-16.44279 -29.93536,-28.29983 -56.03125,-28.34375 -23.91718,-0.0403 -54.11466,9.57632 -92.1875,32.78125 9.81247,-45.67574 3.66914,-111.33253 -9.875,-177.5 C 449.36708,278.34455 432.32982,195.22703 395.25,143.5 z m 0.75,17 c 4.70252,10.16211 9.43437,21.2698 14.125,33.4375 -50.29494,105.85067 -57.98737,219.93637 -46.21875,319.21875 11.70514,98.74682 42.52387,182.67894 70.46875,230.15625 l -0.0312,0.46875 0,0.0312 0,0.0312 c -0.65311,14.75407 0.78549,18.81003 -6.1875,54.4375 -3.22172,16.46086 -14.31907,32.77134 -24.65625,44.9375 -5.16673,6.08089 -10.09231,11.12406 -13.71875,14.78125 -0.59799,0.60306 -0.91597,0.94116 -1.4375,1.46875 -0.5906,-0.77921 -1.0098,-1.38424 -1.75,-2.34375 -2.97891,-3.86154 -7.05234,-9.14743 -11.375,-15.5 -8.64864,-12.71005 -18.18413,-29.59271 -21.46875,-46.375 -6.91033,-35.30733 -1.94613,-37.88935 -2.625,-53.40625 l 0,-0.0312 -0.0625,-1.78125 -0.5625,-16.4375 -7.78125,14.46875 -0.875,1.625 0,0.0312 c -1.98443,3.69441 -4.22884,8.5124 -7.46875,12.3125 -3.24247,3.8031 -6.95631,6.43498 -12.90625,6.53125 -8.74012,0.14142 -17.47418,3.3523 -24.21875,6.40625 -2.07831,0.94106 -3.53908,1.72248 -5.09375,2.53125 -0.13949,-3.02591 0.0102,-7.09743 1.15625,-12.21875 2.56389,-11.45674 9.96921,-26.92618 30.84375,-42.59375 l 0.1875,-0.125 1.65625,-1.09375 0.28125,-1.96875 0.0312,-0.21875 0,-0.0937 0.0312,-0.0937 c 5.18547,-51.23757 -12.85226,-87.61562 -40.78125,-100.21875 -13.94874,-6.29445 -30.15548,-6.34721 -46,0.40625 l -0.0625,0.0312 c -15.85974,6.77896 -31.41881,20.22486 -44.96875,40.8125 -5.05639,7.68263 -18.17211,21.18899 -30.46875,31.09375 -2.14129,1.72477 -4.19896,3.17849 -6.25,4.65625 12.58769,-20.62859 12.61513,-51.96576 -3.5625,-78.90625 -4.11824,-6.85806 -7.7652,-23.07234 -7.28125,-40.84375 0.48405,-17.77524 4.82427,-37.3339 14.5,-52.28125 9.67894,-14.95231 24.27299,-25.53973 47.3125,-26.625 23.02949,-1.0848 54.80442,7.81911 97.1875,33.625 l 0.0312,0.0312 1.46875,0.90625 13.1875,8.25 -6.84375,-14 -0.78125,-1.59375 -0.0312,-0.0312 0,-0.0312 C 292.1736,473.60766 298.95799,403.96551 319.125,334.1875 338.0914,268.56362 368.43461,203.12624 396,160.5 z m 18.96875,46.75 c 14.3941,39.5135 27.88648,86.06252 37.46875,132.875 14.6242,71.44394 19.98002,142.59381 7.09375,184.65625 l -0.40625,1.3125 -3.625,11.71875 10.28125,-6.6875 1.15625,-0.75 0.0312,0 c 42.17251,-27.459 74.05021,-37.69529 97.25,-37.65625 23.20531,0.039 37.9718,9.8165 47.90625,24.09375 l 0.0625,0.125 c 9.87503,14.25749 14.51079,33.26829 15.25,50.6875 0.73922,17.41939 -2.69341,33.42504 -6.78125,40.28125 -0.01,0.0163 -0.0215,0.0463 -0.0312,0.0625 l -0.125,0.1875 -0.0312,0.0312 0,0.0312 c -16.67867,27.99298 -15.91461,60.68115 -1.78125,81.15625 -2.94737,-1.81121 -6.11408,-3.9492 -9.3125,-6.28125 -12.90099,-9.40645 -26.65084,-22.47479 -31.5625,-29.9375 -27.10257,-41.17937 -63.72626,-54.99644 -91.90625,-43.25 -28.17909,11.74607 -45.63961,47.95455 -37.34375,100.46875 l 0.0312,0.0937 0,0.0937 0.0625,0.3125 0.53125,2.53125 2.4375,0.8125 0.21875,0.0625 c 0.0235,0.008 0.0391,0.023 0.0625,0.0312 29.32418,10.31694 38.17341,26.49371 40.78125,40.40625 1.37397,7.33002 0.82233,13.66546 0.0312,18.21875 -5.40929,-4.09436 -13.94022,-9.1386 -24.6875,-9.3125 -5.6098,-0.0908 -10.70192,-3.52349 -15.03125,-8.21875 -3.52937,-3.82768 -6.11817,-8.01506 -8,-11.34375 l 0.90625,-0.5625 -2.25,-3.78125 C 416.52438,694.21139 385.3715,610.30484 373.71875,512 c -11.26779,-95.05724 -4.26615,-203.58992 41.25,-304.75 z"
       id="path3056"
       inkscape:connector-curvature="0"
       sodipodi:nodetypes="cccsssscccccccccsssssscsccccccccccscsscccsscssccccccscssssscccccccccccsssscccccsccccssscssscccccccssscscccccccsccsscssssccccccccsccsccccccsccsccccccsssccccccccscsscccsc" />
  </g>
  <g
     inkscape:groupmode="layer"
     id="layer5"
     inkscape:label="KleeblattFill"
     style="display:inline">
    <path
       style="fill:url(#linearGradient3856);fill-opacity:1;fill-rule:nonzero;stroke:#ff0000;stroke-width:0;stroke-miterlimit:4;stroke-opacity:1;stroke-dasharray:none;display:inline"
       d="m 430.15673,194.9149 c -10.59253,-0.27679 -18.85527,8.86885 -21.60714,18.4375 -20.63681,52.0441 -34.58828,106.78183 -39.81734,162.59183 -2.50405,26.84295 -2.14548,53.88301 -2.44697,80.82332 0.34057,6.29856 -0.65163,13.04703 1.81788,18.95092 4.66033,2.43947 9.06414,-2.73436 13.52679,-3.92857 19.43126,-9.21975 42.06923,-12.15421 62.84867,-5.8864 17.61497,4.28072 33.95286,11.98169 49.71115,20.82614 18.37898,10.06396 38.97578,16.55349 60.09583,16.20462 9.17079,-0.37348 18.76285,1.16072 27.63453,-1.61311 12.02091,-5.44326 15.9331,-19.54301 16.96428,-31.62946 1.25156,-15.90417 0.0248,-32.55303 -6.36161,-47.32143 -0.70345,-2.17805 -3.57142,-3.56718 -4.15178,-5.11161 7.97202,-19.8646 13.86655,-42.76574 6.02678,-63.61607 -6.3601,-16.92864 -23.57984,-28.56289 -41.58482,-28.77232 -12.16246,-1.04327 -24.22425,2.645 -34.2552,9.44945 -16.29186,10.5549 -32.53358,21.20538 -50.36533,28.96573 -8.92103,3.63821 -18.06025,8.57983 -27.76786,8.61607 -4.59761,-1.68955 -5.04901,-8.32742 -3.83929,-12.41072 6.73932,-21.22199 17.08033,-41.19378 25.26403,-61.91933 8.21573,-20.69145 15.84896,-42.43722 15.2941,-64.99892 -0.46328,-17.2292 -14.14928,-32.04806 -30.62389,-35.91978 -5.3207,-1.46265 -10.85793,-1.94927 -16.36281,-1.73786 z"
       id="path3845"
       inkscape:connector-curvature="0" />
    <path
       style="fill:url(#linearGradient3869);fill-opacity:1;fill-rule:nonzero;stroke:#ff0000;stroke-width:0;stroke-miterlimit:4;stroke-opacity:1;stroke-dasharray:none;display:inline"
       d="m 334.57638,194.41638 c -11.70737,0.062 -24.49705,3.80115 -31.11608,14.19643 -8.17552,11.27553 -13.4952,25.0458 -12.05357,39.15178 0.94742,16.57688 9.59667,31.36323 16.08108,46.26837 8.31306,18.53815 18.94063,36.0668 26.01714,55.13788 2.58517,8.02292 3.9554,16.46007 5.17857,24.84375 -34.37654,-7.39658 -65.65847,-24.48276 -98.41518,-36.96428 -15.10528,-6.2245 -31.3256,-10.532 -47.8125,-9.15179 -15.76138,1.25592 -27.70582,14.17851 -34.70982,27.43304 -8.20658,15.67191 -6.02223,34.7676 1.16256,50.41587 1.85753,5.72106 5.62995,11.20375 5.7794,17.2627 -3.27516,15.78199 -12.3155,31.58169 -7.43303,48.03571 4.53903,15.91375 17.32337,28.76647 32.05949,35.73537 13.94157,6.57593 31.10259,5.83836 44.01194,-2.81126 19.4144,-12.7474 40.02575,-24.05538 62.44285,-30.44464 20.10991,-5.70135 42.31415,-9.70958 62.55715,-2.68036 5.95286,0.58414 4.15284,-6.73904 4.3039,-10.44607 -1.36513,-53.60845 2.0749,-107.56912 14.50383,-159.76691 6.87374,-30.31039 17.20127,-59.5856 27.79941,-88.76024 0.39072,-5.38162 -6.59502,-4.83682 -10.05184,-6.39033 -19.75346,-5.22724 -39.62326,-11.52732 -60.3053,-11.06502 z"
       id="path3861"
       inkscape:connector-curvature="0" />
  </g>
  <g
     inkscape:groupmode="layer"
     id="layer8"
     inkscape:label="Reflections"
     style="display:inline">
    <path
       sodipodi:type="arc"
       style="fill:url(#linearGradient3903);fill-opacity:1;fill-rule:nonzero;stroke:#ff0000;stroke-width:0;stroke-miterlimit:4;stroke-opacity:1;stroke-dasharray:none"
       id="path3895"
       sodipodi:cx="211.42857"
       sodipodi:cy="365.21933"
       sodipodi:rx="42.857143"
       sodipodi:ry="21.428572"
       d="m 254.28572,365.21933 a 42.857143,21.428572 0 1 1 -85.71429,0 42.857143,21.428572 0 1 1 85.71429,0 z"
       transform="matrix(0.71666666,0,0,1.6,47.047619,-206.27445)" />
    <path
       sodipodi:type="arc"
       style="fill:url(#linearGradient3954);fill-opacity:1;fill-rule:nonzero;stroke:#ff0000;stroke-width:0;stroke-miterlimit:4;stroke-opacity:1;stroke-dasharray:none"
       id="path3895-4"
       sodipodi:cx="211.42857"
       sodipodi:cy="365.21933"
       sodipodi:rx="42.857143"
       sodipodi:ry="21.428572"
       d="m 254.28572,365.21933 a 42.857143,21.428572 0 1 1 -85.71429,0 42.857143,21.428572 0 1 1 85.71429,0 z"
       transform="matrix(0.58333333,0,0,1.1,209.52381,-167.95051)" />
  </g>
  <g
     inkscape:groupmode="layer"
     id="layer3"
     inkscape:label="Kleeblatt"
     style="display:inline">
    <path
       id="path3836"
       style="fill:none;stroke:#ff0000;stroke-width:10;stroke-linecap:butt;stroke-linejoin:miter;stroke-miterlimit:4;stroke-opacity:1;stroke-dasharray:none"
       d="M 410.71429,202.36218 C 383.09074,272.91023 358.86165,349.11573 365,475.93361 m 38.05087,-270.07926 c -33.33504,-9.37394 -80.98114,-25.28525 -100.00511,0 -28.35165,37.6829 -6.99667,66.14705 6.06092,95.96449 10.00324,22.84271 25.69667,43.24677 27.27412,69.70053 -61.52384,-12.50177 -131.28348,-71.18572 -168.1904,-33.84012 -36.90692,37.34561 -5.17637,75.19387 -5.05077,84.34774 0.12561,9.15388 -17.15049,33.09326 -4.82335,57.59103 12.32713,24.49777 46.9717,47.61548 80.58479,23.22118 33.08964,-24.0144 100.87409,-48.69035 131.31984,-23.23351 47.85865,-27.1781 72.99518,-11.94157 101.52033,-3.03046 46.74614,27.26083 60.52335,29.24458 102.02541,28.28427 41.50206,-0.96031 26.6848,-85.26337 16.66751,-87.88327 35.49577,-84.18836 -34.84952,-111.88193 -73.74113,-83.84266 -35.99548,25.95128 -81.55091,44.27661 -77.27668,34.34519 -11.07321,-5.76868 38.02319,-77.79513 39.90103,-129.29952 1.06249,-29.14147 -21.46516,-45.39595 -46.97209,-45.45687 -18.93012,-0.0452 -12.23566,8.48252 -29.29442,13.13198 z"
       inkscape:connector-curvature="0" />
  </g>
  <g
     inkscape:groupmode="layer"
     id="layer7"
     inkscape:label="CollarFill"
     style="display:inline">
    <path
       style="fill:url(#linearGradient3888);fill-opacity:1;fill-rule:nonzero;stroke:#ff0000;stroke-width:0;stroke-miterlimit:4;stroke-opacity:1;stroke-dasharray:none"
       d="m 325.4007,674.38251 c -6.4626,0.33639 -13.32575,0.35925 -19.20759,3.3817 -3.69205,1.81933 -4.55481,7.28346 -1.28348,9.93304 4.83574,3.98036 11.32693,4.94813 17.26433,6.32697 21.51206,3.80398 43.4636,3.67089 65.21121,5.18029 17.29304,1.01071 34.57524,2.90639 51.91062,2.73381 7.63023,-0.37857 15.62701,-0.54528 22.72321,-3.59375 3.5502,-1.35091 5.91937,-5.92147 3.45982,-9.27456 -3.65228,-4.79271 -9.968,-6.13215 -15.49322,-7.55737 -15.04047,-3.07277 -30.48073,-3.1425 -45.75526,-4.05975 -23.33776,-0.89993 -46.66022,-2.32353 -70.00126,-3.0192 -2.94239,-0.051 -5.88563,-0.1072 -8.82838,-0.0512 z"
       id="path3880"
       inkscape:connector-curvature="0" />
  </g>
  <g
     inkscape:groupmode="layer"
     id="layer6"
     inkscape:label="Collar"
     style="display:inline">
    <path
       style="font-size:medium;font-style:normal;font-variant:normal;font-weight:normal;font-stretch:normal;text-indent:0;text-align:start;text-decoration:none;line-height:normal;letter-spacing:normal;word-spacing:normal;text-transform:none;direction:ltr;block-progression:tb;writing-mode:lr-tb;text-anchor:start;baseline-shift:baseline;color:#000000;fill:#ff0000;fill-opacity:1;stroke:none;stroke-width:10;marker:none;visibility:visible;display:inline;overflow:visible;enable-background:accumulate;font-family:Sans;-inkscape-font-specification:Sans"
       d="m 331.125,667.59375 c -4.03515,-0.0374 -7.7095,0.021 -11.03125,0.21875 -6.6435,0.39541 -11.96952,1.22798 -16.34375,3.5625 -4.37423,2.33452 -7.45937,6.9866 -7.71875,12.03125 l 0,0.0625 c -0.14599,3.25175 1.32857,6.36662 3.40625,8.5 2.09121,2.14726 4.70794,3.6069 7.65625,4.84375 5.89662,2.4737 13.39249,4.01407 21.75,5.15625 16.71503,2.28436 36.80572,2.8418 51.21875,3.5 14.15882,0.64659 35.92494,3.10104 54.53125,3.25 9.30316,0.0745 17.80408,-0.39156 24.65625,-2.1875 3.42608,-0.89797 6.49301,-2.10327 9.0625,-4.15625 2.56949,-2.05298 4.5463,-5.26952 4.78125,-8.8125 0.41287,-6.22604 -3.71947,-11.61546 -9.15625,-14.5 -5.43678,-2.88454 -12.39898,-4.46235 -20.875,-5.625 -16.95204,-2.32529 -39.88962,-2.71086 -65.34375,-3.875 -19.10435,-0.87373 -34.48831,-1.85667 -46.59375,-1.96875 z m -0.15625,10 c 11.59719,0.12364 27.08185,1.09067 46.28125,1.96875 25.61753,1.17161 48.56181,1.6036 64.4375,3.78125 7.93785,1.08883 14.09196,2.72117 17.5625,4.5625 3.47054,1.84133 4.02504,2.73736 3.875,5 -0.0465,0.70136 -0.11568,0.92472 -1.03125,1.65625 -0.91557,0.73153 -2.77904,1.6321 -5.375,2.3125 -5.19192,1.36079 -13.1421,1.91492 -22.03125,1.84375 -17.7783,-0.14233 -39.36662,-2.57318 -54.1875,-3.25 -14.56666,-0.66521 -34.4555,-1.23915 -50.3125,-3.40625 -7.9285,-1.08355 -14.85189,-2.6368 -19.21875,-4.46875 -2.18343,-0.91597 -3.67393,-1.90598 -4.34375,-2.59375 -0.66982,-0.68777 -0.61179,-0.74283 -0.59375,-1.09375 0.11343,-2.20618 0.38652,-2.62415 2.4375,-3.71875 2.05098,-1.0946 6.22574,-2.04956 12.21875,-2.40625 2.99651,-0.17835 6.41552,-0.22871 10.28125,-0.1875 z"
       id="path3872"
       inkscape:connector-curvature="0" />
  </g>
</svg>
